# xmcd
# 
# Track frame offsets:
#     150
#     24052
#     42914
#     69005
#     86002
#     109021
#     128693
#     151219
#     171311
#     191387
#     208499
#     229968
#     244708
#     263520
#     285929
#     312057
#     340059
# 
# Disc length: 4680
# 
# Revision: 1
# Processed by: cddbd v1.5.2PL0 Copyright (c) Steve Scherf et al.
# Submitted via: fre:ac v1.0.17
# 
DISCID=d7124611
DTITLE=Robert Harris - Pompeii CD7
DYEAR=2004
DGENRE=Audiobook
TTITLE0=096 Hora Quarta
TTITLE1=097 Hora Quarta
TTITLE2=098 Hora Quarta
TTITLE3=099 Hora Sexta
TTITLE4=100 Hora Sexta
TTITLE5=101 Hora Sexta
TTITLE6=102 Hora Sexta
TTITLE7=103 Hora Sexta
TTITLE8=104 Hora Sexta
TTITLE9=105 Hora Nona
TTITLE10=106 Hora Nona
TTITLE11=107 Hora Nona
TTITLE12=108 Hora Nona
TTITLE13=109 Hora Nona
TTITLE14=110 Hora Nona
TTITLE15=111 Hora Nona
TTITLE16=112 Vespera
EXTD=
EXTT0=
EXTT1=
EXTT2=
EXTT3=
EXTT4=
EXTT5=
EXTT6=
EXTT7=
EXTT8=
EXTT9=
EXTT10=
EXTT11=
EXTT12=
EXTT13=
EXTT14=
EXTT15=
EXTT16=
PLAYORDER=
